<?xml version="1.0" encoding="utf-8"?>
<!-- Generator: Adobe Illustrator 19.2.1, SVG Export Plug-In . SVG Version: 6.00 Build 0)  -->
<svg version="1.1" id="Layer_1" xmlns="http://www.w3.org/2000/svg" xmlns:xlink="http://www.w3.org/1999/xlink" x="0px" y="0px"
	 viewBox="0 0 606.817 479.851" enable-background="new 0 0 606.817 479.851" xml:space="preserve">
<g>
	<path fill-rule="evenodd" clip-rule="evenodd" fill="#68DCF3" d="M502.336,104.481c-50.909-50.905-121.241-82.391-198.927-82.391
		s-148.018,31.487-198.928,82.391c-50.907,50.91-82.395,121.241-82.395,198.926c0,29.104,4.39,57.111,12.541,83.395
		c7.866,25.385,19.235,49.223,33.529,70.963h470.504c14.295-21.739,25.664-45.578,33.53-70.963
		c8.149-26.284,12.542-54.291,12.542-83.395C584.732,225.722,553.242,155.39,502.336,104.481z"/>
	<path fill-rule="evenodd" clip-rule="evenodd" fill="#E6E6E6" d="M91.638,331.643l-0.007,0.003
		c-18.965,4.538-38.028-7.163-42.566-26.128c-4.227-17.665,5.619-35.39,22.299-41.425c-0.051-14.65,9.936-27.956,24.802-31.514
		c5.557-1.33,11.119-1.126,16.259,0.32c4.077-15.238,16.164-27.818,32.585-31.748c23.876-5.721,47.859,9.007,53.572,32.876
		c0.828,3.468,1.223,6.937,1.226,10.354c11.636,2.278,21.462,11.12,24.408,23.403c4.02,16.799-6.327,33.646-23.112,37.664
		L91.638,331.643z"/>
	<path fill-rule="evenodd" clip-rule="evenodd" fill="#2D1B1F" d="M303.409,0c83.782,0,159.635,33.962,214.541,88.867
		c54.903,54.906,88.867,130.758,88.867,214.541c0,31.227-4.753,61.41-13.574,89.868c-9.122,29.421-22.602,56.939-39.683,81.786
		c-2.653,3.862-3.621,4.789-9.059,4.789c-160.728,0-317.961,0-478.689,0c-8.153,0-9.573-0.45-12.556-4.789
		c-17.08-24.847-30.561-52.364-39.683-81.786C4.753,364.818,0,334.635,0,303.408c0-83.783,33.961-159.635,88.867-214.541
		C143.773,33.962,219.626,0,303.409,0L303.409,0z M502.336,104.482c-50.909-50.906-121.243-82.394-198.927-82.394
		c-77.685,0-148.019,31.488-198.928,82.394C53.575,155.39,22.086,225.723,22.086,303.408c0,29.102,4.391,57.108,12.541,83.395
		c7.866,25.382,19.234,49.223,33.529,70.962h470.506c14.294-21.739,25.661-45.581,33.528-70.962
		c8.149-26.287,12.542-54.293,12.542-83.395C584.732,225.723,553.242,155.39,502.336,104.482z"/>
	<path fill-rule="evenodd" clip-rule="evenodd" fill="#716358" d="M379.904,146.959c8.889-8.624,25.348-20.84,41.031-12.516
		c11.274,5.985,14.627,15.077,15.119,22.796C419.847,151.442,401.206,147.887,379.904,146.959z"/>
	<path fill-rule="evenodd" clip-rule="evenodd" fill="#FFC500" d="M552.903,326.147c2.032,7.606,0.12,16.048-5.739,22.088
		c-0.812-1.974-2.01-3.749-3.491-5.231c-2.899-2.9-6.918-4.7-11.346-4.7c-0.778,0-1.545,0.056-2.292,0.163
		c0.083-2.007,0.155-4.015,0.207-6.01l0.314-0.32C536.61,326.08,545.188,324.084,552.903,326.147z"/>
	<path fill-rule="evenodd" clip-rule="evenodd" fill="#FFC500" d="M532.327,342.565c6.509,0,11.785,5.275,11.785,11.785
		c0,1.998-0.498,3.874-1.373,5.523c-0.448-0.522-0.922-1.033-1.417-1.528l-0.019-0.016c-1.975-1.975-4.179-3.586-6.528-4.83
		c-0.948-1.844-3.079-2.85-5.167-2.302l-0.341,0.088c0.216-2.822,0.4-5.64,0.552-8.453
		C530.628,342.657,531.468,342.565,532.327,342.565z"/>
	<path fill-rule="evenodd" clip-rule="evenodd" fill="#FFC500" d="M527.43,369.702c-0.258,2.135-0.543,4.286-0.841,6.435
		c2.067,1.643,4.39,2.79,6.81,3.437c2.376,0.635,4.854,0.799,7.281,0.5c0.307-2.432,0.143-4.912-0.496-7.288
		c-0.825-3.082-2.454-6.008-4.869-8.434l-0.019-0.016c-0.824-0.822-1.705-1.552-2.632-2.188
		C531.345,364.45,529.597,366.985,527.43,369.702z"/>
	<path fill-rule="evenodd" clip-rule="evenodd" fill="#E6E6E6" d="M146.502,306.715l0.117-0.051l0.003-0.002l0.121-0.054l0.051-0.02
		l0.066-0.033l0.107-0.045l0.015-0.008l0.12-0.054l0.037-0.019l0.081-0.037l0.093-0.041l0.028-0.013l0.119-0.056l0.025-0.009
		l0.095-0.047l0.078-0.035l0.041-0.021l0.119-0.057l0.01-0.006l0.107-0.05l0.065-0.031l0.053-0.027l0.119-0.056v-0.003l0.237-0.116
		l0.104-0.051l0.014-0.008l0.119-0.06l0.04-0.018l0.079-0.041l0.235-0.121l0.025-0.011l0.091-0.049l0.079-0.04l0.04-0.02
		l0.116-0.063l0.117-0.063l0.063-0.033l0.055-0.029l0.116-0.06v-0.002l0.116-0.063l0.051-0.025l0.065-0.038l0.102-0.056l0.015-0.009
		l0.116-0.065l0.037-0.018l0.079-0.046l0.088-0.049l0.025-0.016l0.116-0.065l0.113-0.065l0.077-0.044l0.039-0.023l0.228-0.132h0.003
		l0.063-0.037l0.051-0.031l0.113-0.067V304.3l0.114-0.068l0.051-0.03l0.063-0.04l0.1-0.06l0.013-0.007l0.115-0.071l0.038-0.023
		l0.073-0.047l0.089-0.053l0.14-0.088l0.025-0.014l0.163-0.105l0.037-0.023l0.111-0.072l0.012-0.007l0.1-0.065l0.063-0.04
		l0.048-0.035l0.112-0.072l0.223-0.145l0.1-0.068l0.012-0.007l0.111-0.077l0.037-0.023l0.072-0.051l0.086-0.059l0.026-0.016
		l0.108-0.077l0.027-0.016l0.458-0.127l8.83,31.691l0.065,0.211c0.652,2.279,1.417,3.879,2.042,4.697l-0.003,0.006
		c1.273,1.665,2.9,2.243,4.756,1.781c1.965-0.49,3.089-1.843,3.357-3.966l0.007-0.069h0.009c0.116-1.029-0.079-2.866-0.762-5.304
		l-8.176-29.458h0.008l0.044,0.002l0.048,0.006l0.031,0.001l0.021,0.002l0.048,0.003l0.051,0.004l0.003,0.003l0.047,0.003
		l0.051,0.004l0.025,0.003h0.024l0.05,0.005l0.1,0.007l0.049,0.001l0.02,0.003l0.031,0.003l0.048,0.002l0.044,0.004h0.008
		l0.048,0.002l0.052,0.003l0.016,0.001h0.032l0.05,0.005l0.04,0.003h0.009l0.051,0.001l0.049,0.002l0.012,0.003h0.039l0.049,0.003
		l0.034,0.001h0.016l0.049,0.002l0.048,0.003h0.009l0.041,0.003l0.049,0.001l0.031,0.003h0.02h0.049l0.051,0.003h0.003l0.047,0.003
		h0.048l0.028,0.001h0.024l0.048,0.003h0.049l0.05,0.003h0.049l0.023,0.001h0.025h0.051l0.1,0.002h0.049h0.016h0.032h0.049
		l0.041,0.003h0.009h0.049h0.048h0.015h0.037h0.048h0.034h0.015h0.051h0.049h0.009h0.039h0.049h0.032l0.019-0.003h0.049h0.048h0.005
		h0.044l0.048-0.002h0.028h0.024l0.048-0.001h0.049l0.063-0.003h0.064h0.006l0.057-0.003l0.063-0.001h0.012l0.054-0.003l0.063-0.003
		h0.016l0.047-0.003l0.065-0.001h0.021l0.041-0.003l0.063-0.003l0.028-0.002h0.035l0.065-0.004h0.032l0.031-0.003l0.063-0.004h0.039
		l0.024-0.003l0.063-0.005l0.047-0.001h0.018l0.063-0.005l0.048-0.003l0.015-0.001l0.063-0.002l0.055-0.006h0.008l0.063-0.004
		l0.063-0.004l0.063-0.005l0.063-0.004h0.004l0.06-0.005l0.063-0.007h0.009l0.054-0.005l0.063-0.004l0.015-0.003l0.048-0.004
		l0.063-0.005l0.019-0.003l0.044-0.004l0.061-0.005l0.027-0.001l0.036-0.005l0.063-0.004l0.032-0.005l0.031-0.001l0.063-0.008
		l0.036-0.004l0.027-0.003l0.063-0.007l0.041-0.005l0.022-0.001l0.06-0.008l0.048-0.004l0.015-0.003l0.063-0.007l0.053-0.007h0.009
		l0.063-0.007l0.057-0.008l0.003-0.001l0.063-0.008l0.063-0.007l0.003-0.003l0.06-0.007l0.06-0.007l0.009-0.003l0.053-0.007
		l0.063-0.009l0.012-0.002l0.049-0.004l0.063-0.009l0.019-0.002l0.041-0.007l0.063-0.009l0.023-0.006l0.04-0.004l0.06-0.009
		l0.031-0.005l0.032-0.004l0.061-0.009l0.035-0.007l0.028-0.003l0.06-0.009l0.041-0.007l0.021-0.005l0.06-0.009l9.185,32.593
		l0.054,0.172c1.013,3.831,0.436,7.735-1.329,10.986c-1.798,3.312-4.844,5.955-8.679,7.152c-2.242,0.695-3.495,3.082-2.797,5.323
		c0.044,0.145,0.095,0.287,0.154,0.421l7.039,18.736c-1.668,1.054-3.372,2.397-5.105,4.042c-0.579,0.087-1.148,0.179-1.709,0.281
		l-4.187-22.155c-0.43-2.304-2.653-3.824-4.957-3.397l-0.251,0.054v-0.001c-3.894,0.97-7.866,0.295-11.127-1.601
		c-3.242-1.887-5.798-4.985-6.885-8.867l-8.552-30.537l-1.352-4.773h0.006l0.109-0.008l0.048-0.001l0.065-0.006l0.092-0.007
		l0.018-0.002l0.115-0.007l0.025-0.002l0.088-0.007l0.069-0.004l0.044-0.003l0.115-0.009l0.111-0.009l0.044-0.003l0.071-0.007
		l0.088-0.007l0.025-0.003l0.113-0.009l0.018-0.002l0.095-0.009l0.063-0.004l0.049-0.005l0.109-0.009l0.004-0.001l0.114-0.009
		l0.039-0.005l0.074-0.007l0.081-0.009l0.03-0.003l0.114-0.01l0.014-0.003l0.1-0.009l0.059-0.007l0.055-0.008l0.103-0.009
		l0.009-0.001l0.113-0.012l0.033-0.006l0.081-0.008l0.076-0.009l0.037-0.006l0.111-0.013h0.009l0.105-0.015l0.054-0.004l0.06-0.009
		l0.095-0.012l0.017-0.003l0.113-0.013l0.028-0.006l0.085-0.01l0.072-0.009l0.04-0.005l0.113-0.016h0.003l0.111-0.016l0.047-0.006
		l0.065-0.009l0.091-0.013l0.023-0.003l0.115-0.016l0.02-0.004l0.091-0.015l0.065-0.009l0.048-0.007l0.11-0.016l0.002-0.003
		l0.113-0.016l0.04-0.007l0.072-0.012l0.086-0.015l0.028-0.004l0.112-0.019l0.016-0.003l0.097-0.016l0.06-0.009l0.052-0.009
		l0.104-0.016l0.009-0.003l0.112-0.019l0.036-0.007l0.077-0.013l0.079-0.015l0.032-0.007l0.114-0.018l0.009-0.003l0.102-0.019
		l0.053-0.009l0.059-0.01l0.1-0.019l0.014-0.003l0.112-0.021l0.029-0.007l0.081-0.016l0.075-0.015l0.04-0.007l0.111-0.023h0.006
		l0.106-0.021l0.048-0.012l0.063-0.01l0.093-0.019l0.019-0.005l0.113-0.023l0.024-0.006l0.088-0.017l0.067-0.017l0.044-0.009
		l0.112-0.023l0.067-0.013l0.044-0.009l1.162,4.143l6.781,24.203c0.594,2.132,1.079,3.619,1.365,4.331l0.005,0.015l-0.005,0.003
		c0.883,2.192,2.24,3.193,4.53,2.966l0.05-0.005v0.005c2.717-0.3,4.263-2.088,3.714-5.289c-0.112-0.651-0.47-2.113-1.109-4.41
		l-0.004-0.016h0.004L146.502,306.715z"/>
	<g>
		<path fill-rule="evenodd" clip-rule="evenodd" fill="#2D1B1F" d="M179.382,299.412l1.803,6.433l18.654-4.463
			c0.167-0.053,0.337-0.095,0.513-0.125c7.139-1.77,12.921-6.246,16.49-12.062c3.57-5.816,4.946-12.999,3.296-20.179
			c-0.047-0.16-0.085-0.323-0.113-0.491c-1.281-5.12-3.941-9.534-7.483-12.93c-3.677-3.531-8.307-5.974-13.319-6.999
			c-2.068-0.288-3.661-2.063-3.664-4.207c-0.004-1.584-0.085-3.151-0.27-4.653l-0.007-0.049c-0.176-1.458-0.435-2.938-0.777-4.423
			c-0.048-0.161-0.088-0.327-0.117-0.499c-2.618-10.673-9.305-19.316-17.995-24.649c-8.688-5.333-19.416-7.381-30.133-4.892
			c-0.161,0.051-0.324,0.091-0.494,0.12c-7.204,1.761-13.471,5.371-18.416,10.189c-4.299,4.183-7.607,9.294-9.687,14.914
			c2.461,1.136,5.687,2.89,8.628,5.34c1.805,1.498,2.052,4.179,0.554,5.984c-1.497,1.803-4.179,2.051-5.982,0.553
			c-3.887-3.239-8.264-4.882-9.39-5.271l-0.204-0.051c-2.275-0.642-4.642-1.006-7.028-1.053c-2.336-0.044-4.725,0.203-7.099,0.767
			c-6.38,1.525-11.729,5.136-15.501,9.928c-2.727,3.469-4.633,7.562-5.499,11.939c2.323-0.383,5.115-0.652,8.033-0.506
			c2.336,0.108,4.144,2.099,4.037,4.439c-0.109,2.337-2.103,4.143-4.439,4.035c-5.812-0.291-11.001,1.556-11.014,1.559l-0.175,0.055
			c-7.266,2.693-13.05,7.931-16.545,14.42c-3.481,6.472-4.69,14.222-2.835,21.954c1.992,8.337,7.18,15.086,13.946,19.237
			c4.8,2.945,10.399,4.593,16.227,4.593l11.146-32.509c-1.828-2.599-3.15-5.501-3.837-8.665c-0.492-2.29,0.966-4.55,3.257-5.042
			c2.29-0.492,4.55,0.964,5.042,3.255c0.635,2.934,2.186,5.581,4.38,7.847c3.47,3.568,8.514,6.198,14.218,7.616
			c5.857,1.461,12.368,1.645,18.592,0.294c6.048-1.309,11.817-4.082,16.415-8.549c1.356-1.326,3.372-1.558,4.964-0.708
			c3.229,1.461,6.44,2.079,9.499,2.012c4.227-0.099,8.212-1.539,11.585-3.906c3.442-2.417,6.251-5.794,8.067-9.701
			c1.527-3.292,2.355-6.979,2.267-10.804c-0.047-2.345,1.812-4.289,4.157-4.335c2.343-0.048,4.288,1.81,4.336,4.154
			c0.119,5.136-0.999,10.101-3.064,14.548c-2.449,5.277-6.242,9.83-10.881,13.087C182.207,297.883,180.824,298.703,179.382,299.412
			L179.382,299.412z M183.477,314.035l5.127,18.299l0.061,0.243c1.618,6.017,0.718,12.159-2.061,17.266
			c-2.139,3.94-5.396,7.268-9.464,9.471l5.65,15.034c-2.511,0.348-5.167,1.325-7.925,3.069l-7.039-18.736
			c-0.06-0.135-0.111-0.276-0.154-0.421c-0.698-2.241,0.555-4.628,2.797-5.323c3.835-1.197,6.881-3.84,8.679-7.152
			c1.765-3.251,2.341-7.155,1.329-10.986l-0.054-0.172l-9.185-32.593c-1.311,0.216-2.649,0.344-4.005,0.375
			c-1.05,0.023-2.112-0.012-3.181-0.107l8.176,29.46c0.683,2.438,0.878,4.275,0.762,5.304h-0.009l-0.007,0.069
			c-0.268,2.123-1.392,3.476-3.357,3.966c-1.856,0.462-3.483-0.116-4.756-1.781l0.003-0.006c-0.625-0.818-1.389-2.418-2.042-4.697
			l-0.065-0.211l-8.874-31.854c-2.331,1.653-4.809,3.038-7.38,4.162l8.065,28.671h-0.004l0.004,0.016
			c0.639,2.298,0.997,3.759,1.109,4.41c0.55,3.201-0.997,4.989-3.714,5.289v-0.005l-0.05,0.005c-2.29,0.227-3.647-0.774-4.53-2.966
			l0.005-0.003l-0.005-0.015c-0.286-0.713-0.771-2.199-1.365-4.331l-6.781-24.203l-1.162-4.143l-0.111,0.023
			c-2.383,0.518-4.804,0.847-7.223,1l1.352,4.773l8.552,30.537c1.087,3.882,3.643,6.98,6.885,8.867
			c3.261,1.896,7.233,2.572,11.127,1.601v0.001l0.251-0.054c2.304-0.427,4.527,1.093,4.957,3.397l4.187,22.155
			c0.562-0.103,1.13-0.195,1.709-0.281c-1.025,0.974-2.059,2.044-3.101,3.244c-1.498,2.023-2.742,4.035-3.768,6.027
			c-1.076-0.506-1.935-1.456-2.283-2.685c-0.059-0.198-0.099-0.395-0.125-0.595l-4.215-22.294c-4.618,0.24-9.127-0.916-12.997-3.164
			c-5.092-2.957-9.102-7.826-10.809-13.927l-5.728-20.452l-3.157,0.756l0.182,0.097c2.442,1.382,3.298,4.493,1.913,6.934
			l-2.439,4.271l-24.857,43.552c-0.942,1.787-2.913,2.914-5.04,2.689c-2.795-0.295-4.821-2.806-4.526-5.599l3.772-35.075
			l-8.332-1.41v-0.003c-0.572-0.095-1.141-0.292-1.676-0.595c-2.287-1.298-3.184-4.109-2.148-6.469
			c-6.344-0.482-12.405-2.495-17.701-5.746c-8.637-5.3-15.253-13.896-17.792-24.516c-2.353-9.822-0.809-19.679,3.633-27.935
			c4.051-7.524,10.526-13.732,18.655-17.369c0.562-7.304,3.32-14.192,7.744-19.821c4.912-6.238,11.889-10.937,20.218-12.932
			c3.091-0.734,6.19-1.06,9.219-0.997c1.74,0.033,3.46,0.188,5.139,0.463c2.502-6.951,6.565-13.277,11.872-18.445
			c6.077-5.922,13.783-10.336,22.622-12.449l0.084-0.021l0.176-0.039v-0.003l0.009-0.003l0.023-0.002
			c12.967-3.023,25.959-0.539,36.496,5.927c10.623,6.518,18.768,17.097,21.897,30.165l0.01,0.054l0.049,0.207l0.003,0.009
			c0.411,1.775,0.724,3.569,0.935,5.371l0.012,0.126c0.088,0.75,0.165,1.493,0.216,2.229c5.427,1.619,10.393,4.518,14.466,8.421
			c4.748,4.555,8.296,10.481,9.945,17.353l0.013,0.067l0.044,0.193h0.002l0.003,0.004l0.004,0.037
			c2.17,9.422,0.358,18.856-4.339,26.513c-4.755,7.743-12.463,13.681-21.994,15.96l-0.025,0.004l-0.235,0.059L183.477,314.035
			L183.477,314.035z M195.287,239.735l-0.004-0.031L195.287,239.735L195.287,239.735z M202.082,309.585l-0.02,0.001L202.082,309.585
			L202.082,309.585z M122.176,311.316l-13.065,18.266l10.228,2.39l-23.434,41.06l3.747-34.871l-11.951-2.026l11.741-34.942
			c4.356,3.675,9.957,6.384,16.102,7.915c2.123,0.53,4.315,0.917,6.548,1.158C122.077,310.611,122.104,310.965,122.176,311.316z"/>
	</g>
	<path fill-rule="evenodd" clip-rule="evenodd" fill="#716358" d="M335.512,308.225c0,14.694-10.842,29.49-26.42,44.241
		c0.811,11.387,16.175,57.106,219.781,3.591c9.929-111.079-27.415-218.574-180.045-208.749
		c-47.155,50.438-106.951,50.449-110.383,49.53C232.926,217.436,217.551,276.619,335.512,308.225L335.512,308.225z M199.357,456.103
		c-15.197-8.358-57.322-38.144-32.699-71.4c24.922-28.644,45.301,8.59,35.642,24.86c0,0,10.945,5.912,19.407,13.855
		c17.567-16.795,42.423-34.014,64.424-51.394c-11.366,22.872-20.229,58.736-10.297,89.857h-77.123
		C198.711,459.965,198.937,458.037,199.357,456.103L199.357,456.103z M275.835,461.881c140.456,0,235.32-71.509,252.623-101.35
		c-3.495,34.739-11.518,69.683-21.997,101.35H275.835z"/>
	<path fill-rule="evenodd" clip-rule="evenodd" fill="#E6E6E6" d="M518.623,418.705c30.189-128.867,11.706-283.08-169.796-271.398
		c-1.701,1.821-3.421,3.568-5.152,5.259c41.16,37.942,129.419,84.226,148.868,114.901
		C512.824,299.453,516.114,342.125,518.623,418.705z"/>
	
		<ellipse transform="matrix(0.2588 -0.9659 0.9659 0.2588 65.9113 565.54)" fill-rule="evenodd" clip-rule="evenodd" fill="#2D1B1F" cx="401.471" cy="239.821" rx="20.308" ry="20.308"/>
	
		<ellipse transform="matrix(0.2588 -0.9659 0.9659 0.2588 70.0713 553.4202)" fill-rule="evenodd" clip-rule="evenodd" fill="#E6E6E6" cx="395.631" cy="231.053" rx="5.492" ry="5.493"/>
	<path fill-rule="evenodd" clip-rule="evenodd" fill="#E6E6E6" d="M351.982,316.249l0.213,0.544l1.975,5.431l3.513-3.487
		l2.415,5.768l5.107-4.925l3.919,6.747l6.29-5.288l5.471,7.111l5.822-5.654l5.666,6.932l7.201-7.383l8.477,7.929l8.142-9.747
		C394.341,323.018,368.648,319.45,351.982,316.249z"/>
	<path fill-rule="evenodd" clip-rule="evenodd" fill="#716358" d="M468.594,200.294c12.308-4.277,41.492-12.043,52.287,5.819
		c11.746,19.432-11.292,39.382-18.53,44.974l-8.832-7.945l-10.942-9.845l5.996-8.345c0.718-0.997,1.046-2.17,0.999-3.308
		c-0.041-1.161-0.474-2.308-1.25-3.229l-0.054-0.063l-0.471-0.476l-0.043-0.039L468.594,200.294z"/>
	<path fill-rule="evenodd" clip-rule="evenodd" fill="#FFC500" d="M309.127,350.052c0,0-10.801,66.961,221.632,5.515
		c-8.22,25.838-105.927,106.314-254.923,106.314C258.416,407.295,298.811,338.101,309.127,350.052z"/>
	<path fill-rule="evenodd" clip-rule="evenodd" fill="#FFC500" d="M99.443,301.193l-11.741,34.942l11.951,2.026l-3.747,34.871
		l23.434-41.06l-10.228-2.39l13.758-19.235c-2.502-0.233-4.957-0.649-7.325-1.238C109.4,307.577,103.798,304.868,99.443,301.193z"/>
	<path fill-rule="evenodd" clip-rule="evenodd" fill="#2D1B1F" d="M476.178,207.24c11.384-2.196,25.313-2.204,31.682,8.336
		c7.019,11.606-0.64,23.435-7.905,31.048l0.567,0.511c7.265-5.719,26.352-22.883,16.711-38.826
		c-8.698-14.391-32.748-8.811-45.082-4.754l-5.283-4.837l-1.812-1.658c3.827-1.413,10.268-3.533,17.635-4.929
		c-13.594-13.935-30.844-24.957-52.347-32.073c-21.898-7.243-48.22-10.459-79.584-8.612c-16.501,17.296-34.454,28.681-51.065,36.136
		c-23.142,10.387-44.054,13.078-54.838,13.532c12.51,7.94,26.073,16.687,33.391,21.821c4.956,3.475,3.695,6.578-0.87,8.902
		c-7.443,3.784-20.462,9.03-33.387,13.641l0.508,1.095c9.75,20.363,34.588,42.134,92.107,57.544l0.243,0.075
		c4.304,1.134,59.424,15.293,91.805,4.686c2.233-0.726,4.634,0.497,5.359,2.726c0.263,0.818,0.27,1.659,0.059,2.429
		c-2,8.284-11.657,19.734-24.439,27.782c-7.687,4.841-16.61,8.572-25.772,9.761v0.003c-9.418,1.226-19.053-0.209-27.863-5.781
		c-7.25-4.587-13.873-11.956-19.239-22.937c-4.201,10.48-12.505,20.814-23.043,31.038c1.899,11.638,22.228,47.8,211.209-1.48
		c1.329-16.407,1.596-32.711,0.579-48.522c-1.32-20.504-4.8-40.168-10.931-58.158c-3.424,3.606-6.76,6.439-9.024,8.232l-0.372-0.335
		l-11.661-10.491l-10.942-9.845l0.014-0.019l0.994-1.385l4.988-6.941c0.718-0.997,1.046-2.17,0.999-3.308
		c-0.041-1.161-0.474-2.308-1.25-3.229l-0.054-0.063l-0.471-0.476l-0.043-0.039L476.178,207.24L476.178,207.24z M203.834,415.376
		c-1.089,1.853-2.402,4.061-3.348,5.571c-1.249,1.985-3.875,2.581-5.858,1.331c-1.984-1.249-2.582-3.873-1.332-5.855
		c1.703-2.721,4.442-7.451,5.239-8.831l0.031-0.053l0.023-0.041l0.016-0.025l0.038-0.071l0.028-0.044l0.019-0.035l0.007-0.011
		l0.023-0.04l0.015-0.025l0.003-0.005l0.011-0.02l0.009-0.015l0.002-0.004c0.913-1.621,1.457-3.504,1.671-5.527
		c-2.493,2.632-6.549,1.561-6.233-2.282c0.207-2.506,3.222-5.096,5.419-5.954l0.065-0.036c-0.348-1.306-0.796-2.593-1.338-3.843
		c-0.499,0.43-0.938,0.862-1.296,1.292c-2,2.407-8.258,2.479-7.86-2.337c0.188-2.275,2.296-4.605,4.458-6.056
		c-0.384-0.383-0.78-0.748-1.193-1.087c-0.511-0.423-1.041-0.809-1.588-1.15c-1.16,0.786-2.145,1.571-2.849,2.323
		c-2.653,2.844-7.334,2.206-6.98-2.074c0.041-0.498,0.185-0.999,0.408-1.492c-3.48,1.045-7.364,3.687-11.538,8.478
		c-7.148,9.779-7.792,19.152-4.991,27.552c1.99,5.957,5.706,11.553,10.105,16.548c4.53,5.142,9.747,9.615,14.606,13.209
		c2.7,1.997,5.117,3.756,7.139,5.205c3.302-8.748,9.951-17.49,18.617-26.257C211.3,420.188,206.84,417.229,203.834,415.376
		L203.834,415.376z M192.619,371.561c3.343-1.205,7.71-2.355,11.924-2.207c6.966,0.25,2.64,2.386-3.45,5.307l-2.188,1.061
		c0.98,0.909,1.9,1.906,2.756,2.972c3.828-1.429,9.003-2.865,13.986-2.687c10.105,0.359-0.899,4.248-10.057,9.006
		c0.796,1.674,1.464,3.429,1.988,5.22c2.646-0.766,5.667-1.338,8.608-1.233c8.046,0.282-0.059,3.226-7.442,6.955
		c0.482,4.112,0.188,8.214-1.01,11.847c3.361,2.023,8.756,5.48,14.036,9.76c11.757-10.823,26.117-21.693,40.602-32.656
		c6.684-5.06,13.394-10.142,19.869-15.228l0.386-0.769c3.567-7.004,7.405-12.842,11.039-17.005
		c4.198-4.803,8.464-7.572,12.249-7.722c1.643-0.063,3.148,0.291,4.489,1.093c11.401-11.484,19.336-22.839,20.647-33.857
		c-58.062-16.162-83.737-39.325-94.204-61.182c-10.891-22.731-5.408-43.687-2.511-54.497c0.603-2.267,2.938-3.615,5.208-3.008
		c2.067,0.55,26.697,0.556,56.695-12.903c16.084-7.218,33.52-18.352,49.475-35.417c0.715-0.772,1.714-1.276,2.846-1.348
		c10.425-0.671,20.329-0.801,29.728-0.427c5.519-5.135,13.341-11.065,22.136-13.745c7.153-2.182,14.877-2.247,22.492,1.794
		l0.013,0.007l0.003-0.007c6.408,3.402,10.605,7.751,13.284,12.376c2.188,3.783,3.336,7.706,3.837,11.428
		c21.875,8.412,39.341,20.875,53.012,36.328c12.143-0.687,24.692,1.912,31.456,13.105c7.492,12.395,3.104,24.675-3.647,34.212
		c7.478,20.054,11.631,42.163,13.115,65.229c0.441,6.808,0.644,13.701,0.635,20.652c1.671-0.837,3.405-1.494,5.18-1.968
		c4.637-1.245,9.555-1.245,14.196-0.007c1.605,0.43,2.749,1.721,3.066,3.245c1.182,4.574,1.159,9.401-0.063,13.961
		c-1.206,4.497-3.568,8.748-7.08,12.261c-0.521,0.521-1.058,1.014-1.608,1.484c0.039,0.451,0.056,0.906,0.056,1.359
		c0,3.45-1.087,6.644-2.937,9.254c1.329,2.21,2.316,4.565,2.965,6.986c1.242,4.642,1.242,9.555,0.004,14.199h-0.003
		c-0.383,1.424-1.495,2.609-3.023,3.009c-4.64,1.238-9.546,1.236-14.18-0.005c-0.662-0.179-1.322-0.38-1.97-0.609
		c-4.251,26.177-10.769,51.96-18.678,75.885c-0.513,1.775-2.151,3.07-4.09,3.07H290.797c-4.929,0.179-9.917,0.272-14.962,0.272
		c-0.545,0-1.063-0.095-1.548-0.272h-75.466h-0.11c-2.351,0-4.261-1.907-4.261-4.258c0-1.289,0.089-2.578,0.256-3.866
		c-3.132-1.687-6.64-3.838-10.142-6.43c-5.304-3.926-10.999-8.804-15.933-14.407c-5.06-5.743-9.377-12.303-11.769-19.472
		c-3.652-10.942-2.85-23.06,6.386-35.533l0.207-0.257l-0.009-0.008c8.233-9.459,16.35-12.61,23.465-11.856l0.016,0.001v-0.001
		C188.929,370.262,190.832,370.785,192.619,371.561L192.619,371.561z M351.982,316.249l0.787,0.151l0.241,0.045l0.562,0.107
		l0.502,0.092l0.311,0.058l0.777,0.142l0.048,0.009l0.839,0.148l0.219,0.04l0.631,0.113l0.495,0.088l0.364,0.063l0.783,0.135
		l0.091,0.016l0.882,0.148l0.193,0.033l0.699,0.113l0.486,0.081l0.418,0.066l0.783,0.126l0.132,0.021l0.922,0.144l0.166,0.025
		l0.769,0.119l0.464,0.07l0.476,0.072l0.774,0.113l0.179,0.026l1.803,0.255l0.122,0.019l0.442,0.06l0.533,0.072l0.761,0.105
		l0.223,0.027l0.989,0.128l0.093,0.015l0.906,0.111l1.004,0.124l0.739,0.089l0.271,0.031l1.018,0.119l0.05,0.007l0.972,0.104
		l2.06,0.219l1.038,0.103l0.012,0.001l1.034,0.097l0.345,0.033l0.7,0.063l0.683,0.06l0.37,0.031
		c11.24,0.944,23.126,1.138,34.052-0.258l-8.142,9.745l-8.477-7.929l-7.201,7.383l-5.666-6.932l-5.822,5.654l-5.471-7.111
		l-6.29,5.288l-3.919-6.747l-5.107,4.925l-2.415-5.768l-3.513,3.487l-1.975-5.431L351.982,316.249L351.982,316.249z M402.888,137.01
		c5.17-1.575,10.7-1.652,16.055,1.188l-0.003,0.007c4.86,2.581,7.985,5.775,9.92,9.116c0.683,1.18,1.225,2.386,1.649,3.598
		c-6.37-1.948-13.102-3.587-20.201-4.882c-6.27-1.148-12.823-2.028-19.661-2.628C394.329,140.738,398.508,138.345,402.888,137.01
		L402.888,137.01z M534.456,334.297c-0.041,1.375-0.088,2.753-0.145,4.13c3.637,0.451,6.901,2.116,9.362,4.577
		c0.436,0.436,0.85,0.901,1.236,1.386c1.882-2.195,3.176-4.712,3.879-7.343c0.636-2.376,0.802-4.856,0.5-7.283
		c-2.429-0.307-4.909-0.142-7.286,0.498C539.287,330.987,536.697,332.332,534.456,334.297L534.456,334.297z M533.847,346.977
		c-0.109,1.661-0.225,3.327-0.356,4.992c0.53,0.402,0.972,0.919,1.285,1.531c1.621,0.887,3.22,1.94,4.713,3.169
		c0.237-0.73,0.366-1.511,0.366-2.318c0-2.075-0.846-3.962-2.207-5.32C536.629,348.009,535.312,347.281,533.847,346.977
		L533.847,346.977z M532.546,362.346c-0.563,5.405-1.229,10.811-2,16.21c0.929,0.42,1.881,0.759,2.853,1.019
		c2.376,0.635,4.854,0.799,7.281,0.5c0.307-2.432,0.143-4.912-0.496-7.288c-0.825-3.082-2.454-6.008-4.869-8.434l-0.019-0.016
		c-0.824-0.822-1.708-1.552-2.634-2.191L532.546,362.346L532.546,362.346z M275.497,385.618
		c-7.459,21.048-11.613,47.553-5.544,72.005h-66.571c3.804-20.285,33.664-42.888,64.111-65.933L275.497,385.618L275.497,385.618z
		 M360.22,457.623c25.145-5.341,48.001-12.756,68.276-21.212c44.681-18.633,77.03-42.641,93.882-60.854
		c-3.903,28.183-10.615,56.173-19.003,82.066H360.22L360.22,457.623z M521.874,362.543c-12.243,16.944-46.092,44.352-96.844,65.518
		c-39.36,16.413-88.71,28.803-145.836,29.276c-8.093-29.546,0.671-63.055,11.502-84.325c3.255-6.39,6.644-11.591,9.764-15.165
		c1.687-1.928,3.145-3.309,4.28-4.042C306.717,368.372,327.996,412.147,521.874,362.543z"/>
</g>
</svg>
